<svg id="visual" viewBox="0 0 900 600" width="900" height="600" xmlns="http://www.w3.org/2000/svg" xmlns:xlink="http://www.w3.org/1999/xlink" version="1.1"><g stroke-width="1" stroke-linejoin="bevel"><path d="M508 282L487 198L394 217Z" fill="#21a0a6" stroke="#21a0a6"></path><path d="M394 217L363 324L508 282Z" fill="#004a51" stroke="#004a51"></path><path d="M487 198L406 132L394 217Z" fill="#107d84" stroke="#107d84"></path><path d="M394 217L301 310L363 324Z" fill="#107d84" stroke="#107d84"></path><path d="M363 324L395 372L508 282Z" fill="#2ab2b8" stroke="#2ab2b8"></path><path d="M574 167L528 126L487 198Z" fill="#002b32" stroke="#002b32"></path><path d="M487 198L528 126L406 132Z" fill="#000000" stroke="#000000"></path><path d="M508 282L574 167L487 198Z" fill="#003a41" stroke="#003a41"></path><path d="M406 132L295 214L394 217Z" fill="#000000" stroke="#000000"></path><path d="M295 214L301 310L394 217Z" fill="#004a51" stroke="#004a51"></path><path d="M363 324L301 435L395 372Z" fill="#198e95" stroke="#198e95"></path><path d="M395 372L534 416L508 282Z" fill="#076c73" stroke="#076c73"></path><path d="M508 282L636 326L574 167Z" fill="#004a51" stroke="#004a51"></path><path d="M534 416L636 326L508 282Z" fill="#003a41" stroke="#003a41"></path><path d="M534 416L578 423L636 326Z" fill="#2ab2b8" stroke="#2ab2b8"></path><path d="M719 99L569 67L574 167Z" fill="#003a41" stroke="#003a41"></path><path d="M574 167L569 67L528 126Z" fill="#005b62" stroke="#005b62"></path><path d="M477 0L437 0L406 132Z" fill="#2ab2b8" stroke="#2ab2b8"></path><path d="M290 73L225 184L295 214Z" fill="#004a51" stroke="#004a51"></path><path d="M295 214L182 306L301 310Z" fill="#107d84" stroke="#107d84"></path><path d="M290 73L295 214L406 132Z" fill="#076c73" stroke="#076c73"></path><path d="M301 310L301 435L363 324Z" fill="#001e23" stroke="#001e23"></path><path d="M395 372L363 501L534 416Z" fill="#21a0a6" stroke="#21a0a6"></path><path d="M534 416L569 488L578 423Z" fill="#002b32" stroke="#002b32"></path><path d="M180 382L301 435L301 310Z" fill="#000000" stroke="#000000"></path><path d="M314 0L290 73L406 132Z" fill="#2ab2b8" stroke="#2ab2b8"></path><path d="M477 0L406 132L528 126Z" fill="#000000" stroke="#000000"></path><path d="M569 67L477 0L528 126Z" fill="#001e23" stroke="#001e23"></path><path d="M301 435L324 478L395 372Z" fill="#001e23" stroke="#001e23"></path><path d="M722 431L701 325L636 326Z" fill="#198e95" stroke="#198e95"></path><path d="M636 326L711 185L574 167Z" fill="#002b32" stroke="#002b32"></path><path d="M324 478L363 501L395 372Z" fill="#004a51" stroke="#004a51"></path><path d="M524 516L569 488L534 416Z" fill="#21a0a6" stroke="#21a0a6"></path><path d="M578 423L722 431L636 326Z" fill="#107d84" stroke="#107d84"></path><path d="M701 325L711 185L636 326Z" fill="#003a41" stroke="#003a41"></path><path d="M225 184L182 306L295 214Z" fill="#21a0a6" stroke="#21a0a6"></path><path d="M301 435L162 489L324 478Z" fill="#107d84" stroke="#107d84"></path><path d="M363 501L524 516L534 416Z" fill="#004a51" stroke="#004a51"></path><path d="M569 67L574 0L477 0Z" fill="#198e95" stroke="#198e95"></path><path d="M673 0L574 0L569 67Z" fill="#2ab2b8" stroke="#2ab2b8"></path><path d="M437 0L314 0L406 132Z" fill="#004a51" stroke="#004a51"></path><path d="M290 73L212 75L225 184Z" fill="#001e23" stroke="#001e23"></path><path d="M217 0L212 75L290 73Z" fill="#000000" stroke="#000000"></path><path d="M225 184L98 218L182 306Z" fill="#21a0a6" stroke="#21a0a6"></path><path d="M182 306L180 382L301 310Z" fill="#005b62" stroke="#005b62"></path><path d="M782 121L719 99L711 185Z" fill="#2ab2b8" stroke="#2ab2b8"></path><path d="M711 185L719 99L574 167Z" fill="#2ab2b8" stroke="#2ab2b8"></path><path d="M664 518L722 431L578 423Z" fill="#004a51" stroke="#004a51"></path><path d="M701 325L804 262L711 185Z" fill="#001e23" stroke="#001e23"></path><path d="M664 518L578 423L569 488Z" fill="#2ab2b8" stroke="#2ab2b8"></path><path d="M719 99L673 0L569 67Z" fill="#005b62" stroke="#005b62"></path><path d="M596 600L664 518L569 488Z" fill="#005b62" stroke="#005b62"></path><path d="M314 0L217 0L290 73Z" fill="#21a0a6" stroke="#21a0a6"></path><path d="M212 75L98 218L225 184Z" fill="#001e23" stroke="#001e23"></path><path d="M64 71L98 218L212 75Z" fill="#076c73" stroke="#076c73"></path><path d="M182 306L65 293L180 382Z" fill="#198e95" stroke="#198e95"></path><path d="M820 511L782 374L722 431Z" fill="#198e95" stroke="#198e95"></path><path d="M722 431L782 374L701 325Z" fill="#198e95" stroke="#198e95"></path><path d="M782 374L804 262L701 325Z" fill="#076c73" stroke="#076c73"></path><path d="M719 99L815 0L673 0Z" fill="#107d84" stroke="#107d84"></path><path d="M367 600L518 600L524 516Z" fill="#21a0a6" stroke="#21a0a6"></path><path d="M524 516L596 600L569 488Z" fill="#005b62" stroke="#005b62"></path><path d="M367 600L524 516L363 501Z" fill="#107d84" stroke="#107d84"></path><path d="M830 232L782 121L711 185Z" fill="#003a41" stroke="#003a41"></path><path d="M265 600L363 501L324 478Z" fill="#2ab2b8" stroke="#2ab2b8"></path><path d="M265 600L367 600L363 501Z" fill="#002b32" stroke="#002b32"></path><path d="M180 382L162 489L301 435Z" fill="#005b62" stroke="#005b62"></path><path d="M79 465L162 489L180 382Z" fill="#005b62" stroke="#005b62"></path><path d="M518 600L596 600L524 516Z" fill="#001e23" stroke="#001e23"></path><path d="M900 274L830 232L804 262Z" fill="#2ab2b8" stroke="#2ab2b8"></path><path d="M804 262L830 232L711 185Z" fill="#198e95" stroke="#198e95"></path><path d="M98 218L65 293L182 306Z" fill="#005b62" stroke="#005b62"></path><path d="M162 489L265 600L324 478Z" fill="#107d84" stroke="#107d84"></path><path d="M65 293L62 389L180 382Z" fill="#001e23" stroke="#001e23"></path><path d="M162 489L211 600L265 600Z" fill="#2ab2b8" stroke="#2ab2b8"></path><path d="M664 518L820 511L722 431Z" fill="#21a0a6" stroke="#21a0a6"></path><path d="M596 600L686 600L664 518Z" fill="#198e95" stroke="#198e95"></path><path d="M115 600L211 600L162 489Z" fill="#2ab2b8" stroke="#2ab2b8"></path><path d="M217 0L110 0L212 75Z" fill="#002b32" stroke="#002b32"></path><path d="M98 218L0 262L65 293Z" fill="#003a41" stroke="#003a41"></path><path d="M110 0L64 71L212 75Z" fill="#107d84" stroke="#107d84"></path><path d="M65 293L0 397L62 389Z" fill="#21a0a6" stroke="#21a0a6"></path><path d="M62 389L79 465L180 382Z" fill="#000000" stroke="#000000"></path><path d="M900 100L815 0L782 121Z" fill="#076c73" stroke="#076c73"></path><path d="M782 121L815 0L719 99Z" fill="#076c73" stroke="#076c73"></path><path d="M0 165L0 262L98 218Z" fill="#005b62" stroke="#005b62"></path><path d="M62 389L0 465L79 465Z" fill="#21a0a6" stroke="#21a0a6"></path><path d="M900 379L900 274L804 262Z" fill="#198e95" stroke="#198e95"></path><path d="M830 232L900 170L782 121Z" fill="#002b32" stroke="#002b32"></path><path d="M900 379L804 262L782 374Z" fill="#2ab2b8" stroke="#2ab2b8"></path><path d="M791 600L820 511L664 518Z" fill="#2ab2b8" stroke="#2ab2b8"></path><path d="M900 274L900 170L830 232Z" fill="#001e23" stroke="#001e23"></path><path d="M0 131L98 218L64 71Z" fill="#002b32" stroke="#002b32"></path><path d="M0 131L0 165L98 218Z" fill="#2ab2b8" stroke="#2ab2b8"></path><path d="M0 0L0 131L64 71Z" fill="#004a51" stroke="#004a51"></path><path d="M900 468L900 379L782 374Z" fill="#21a0a6" stroke="#21a0a6"></path><path d="M0 262L0 397L65 293Z" fill="#000000" stroke="#000000"></path><path d="M79 465L115 600L162 489Z" fill="#001e23" stroke="#001e23"></path><path d="M900 170L900 100L782 121Z" fill="#002b32" stroke="#002b32"></path><path d="M0 600L115 600L79 465Z" fill="#002b32" stroke="#002b32"></path><path d="M686 600L791 600L664 518Z" fill="#003a41" stroke="#003a41"></path><path d="M820 511L900 468L782 374Z" fill="#107d84" stroke="#107d84"></path><path d="M0 397L0 465L62 389Z" fill="#21a0a6" stroke="#21a0a6"></path><path d="M900 600L900 468L820 511Z" fill="#076c73" stroke="#076c73"></path><path d="M110 0L0 0L64 71Z" fill="#2ab2b8" stroke="#2ab2b8"></path><path d="M900 100L900 0L815 0Z" fill="#001e23" stroke="#001e23"></path><path d="M0 465L0 600L79 465Z" fill="#107d84" stroke="#107d84"></path><path d="M791 600L900 600L820 511Z" fill="#198e95" stroke="#198e95"></path></g></svg>